<?xml version="1.0" encoding="UTF-8" standalone="no"?>
<svg
   width="160px"
   height="43px"
   viewBox="0 0 160 43"
   version="1.1"
   id="svg4184"
   sodipodi:docname="Artboard2.svg"
   inkscape:version="1.1 (c68e22c387, 2021-05-23)"
   xmlns:inkscape="http://www.inkscape.org/namespaces/inkscape"
   xmlns:sodipodi="http://sodipodi.sourceforge.net/DTD/sodipodi-0.dtd"
   xmlns="http://www.w3.org/2000/svg"
   xmlns:svg="http://www.w3.org/2000/svg"
   xmlns:rdf="http://www.w3.org/1999/02/22-rdf-syntax-ns#"
   xmlns:cc="http://creativecommons.org/ns#"
   xmlns:dc="http://purl.org/dc/elements/1.1/">
  <defs
     id="defs4188">
    <style
       id="style4215">.cls-1{fill:#f69b1e;}.cls-2{fill:#808083;}.cls-3{fill:#a6a7aa;}</style>
  </defs>
  <sodipodi:namedview
     id="namedview4186"
     pagecolor="#505050"
     bordercolor="#eeeeee"
     borderopacity="1"
     inkscape:pageshadow="0"
     inkscape:pageopacity="0"
     inkscape:pagecheckerboard="0"
     showgrid="false"
     inkscape:zoom="4.3989038"
     inkscape:cx="48.534819"
     inkscape:cy="69.221791"
     inkscape:window-width="1842"
     inkscape:window-height="1057"
     inkscape:window-x="-8"
     inkscape:window-y="-8"
     inkscape:window-maximized="1"
     inkscape:current-layer="svg4184" />
  <title
     id="title4178">Artboard</title>
  <g
     id="g4232"
     transform="matrix(0.25352464,0,0,0.25352464,-0.00309448,-0.85637942)">
    <path
       class="cls-1"
       d="m 96.6,166.58 c 1.66,-2.2 7.06,-7.72 7.06,-18 0,-14.58 -18.76,-22 -12.64,-38.67 -11.81,6.26 -12.82,26 -8.8,32.22 -3.85,-1 -6.36,-6 -6,-10.12 -6.36,7.52 -7.65,20.72 -0.22,30.48 1.07,1.39 2.18,2.74 3.27,4.11 v 0 c 0,0 -22.07,-8.16 -22.07,-30.3 0,-34.35 31.54,-35.09 24.81,-68.74 15.2,11.55 19.53,35.77 19.53,50.12 6.86,-3.24 7.65,-13.5 7.71,-13.85 0.19,0.15 10.87,13.87 10.87,31.8 0,23.61 -23.36,30.92 -23.55,31 z"
       id="path4219" />
    <path
       class="cls-2"
       d="m 88.2,35.35 a 52.76,52.76 0 0 0 -37.49,89.91 48.56,48.56 0 0 1 5.13,-13.92 39.78,39.78 0 0 1 15.39,-59.25 c 0.62,-0.29 1.25,-0.57 1.89,-0.83 a 39.82,39.82 0 0 1 48.5,58.52 65.47,65.47 0 0 1 4.89,14.61 52.75,52.75 0 0 0 -38.31,-89 z"
       id="path4221" />
    <path
       class="cls-3"
       d="m 51.78,148.78 a 70.76,70.76 0 1 1 73.86,-0.64 c -3.43,10.06 -10.68,17 -17.64,21.32 a 83.71,83.71 0 1 0 -39.23,0.09 C 62.2,165.27 55.2,158.39 51.78,148.78 Z"
       id="path4223" />
  </g>
  <text
     xml:space="preserve"
     style="font-style:normal;font-variant:normal;font-weight:normal;font-stretch:normal;font-size:24.4826px;line-height:1.25;font-family:'Yu Gothic UI';-inkscape-font-specification:'Yu Gothic UI';fill:#000000;fill-opacity:1;stroke:none;stroke-width:0.612066"
     x="42.923828"
     y="28.586557"
     id="text5724"><tspan
       sodipodi:role="line"
       id="tspan5722"
       x="42.923828"
       y="28.586557"
       style="font-style:normal;font-variant:normal;font-weight:normal;font-stretch:normal;font-family:'Yu Gothic UI';-inkscape-font-specification:'Yu Gothic UI';stroke-width:0.612066">Permapost</tspan><tspan
       sodipodi:role="line"
       x="42.923828"
       y="59.189808"
       style="font-style:normal;font-variant:normal;font-weight:normal;font-stretch:normal;font-family:'Yu Gothic UI';-inkscape-font-specification:'Yu Gothic UI';stroke-width:0.612066"
       id="tspan10598" /></text>
  <metadata
     id="metadata11208">
    <rdf:RDF>
      <cc:Work
         rdf:about="">
        <dc:title>Artboard</dc:title>
      </cc:Work>
    </rdf:RDF>
  </metadata>
</svg>
